<svg xmlns="http://www.w3.org/2000/svg" viewBox="0 0 96 96"><defs><style>.cls-1{fill:#fff;}</style></defs><g id="레이어_2" data-name="레이어 2"><g id="레이어_1-2" data-name="레이어 1"><path d="M.74,0H96V95.26H.74ZM66.22,23.87l-.36-5.64-5.58-.39-.41-5.53h-23l-.38,5.58-5.58.35-.37,5.61-5.87.36V47.65l-6,.38V65.5l-5.54.37v5.5H42.3v6.32H31V83l5.48.38.4,5.52H59.92l.37-5.56L65.76,83V77.47H54.44V71.15H83.62v-5.3l-5.77-.4V48l-5.95-.42V24.15Z" transform="translate(0)"/><path class="cls-1" d="M.74,0V95.26H96A13.31,13.31,0,0,1,93,96Q46.52,96,0,96,0,49.48,0,3A13.31,13.31,0,0,1,.74,0Z" transform="translate(0)"/><path class="cls-1" d="M66.22,23.87l5.68.28V47.58l5.95.42V65.45l5.77.4v5.3H54.44v6.32H65.76V83l-5.47.37-.37,5.56H36.87l-.4-5.52L31,83v-5.3H42.3V71.37H13.13v-5.5l5.54-.37V48l6-.38V24.21l5.87-.36.37-5.61,5.58-.35.38-5.58h23l.41,5.53,5.58.39Z" transform="translate(0)"/></g></g></svg>